<?xml version="1.0" encoding="UTF-8"?>
<!DOCTYPE svg PUBLIC "-//W3C//DTD SVG 1.1//EN" "http://www.w3.org/Graphics/SVG/1.1/DTD/svg11.dtd">
<svg xmlns="http://www.w3.org/2000/svg" version="1.1" width="500px" height="93px" style="shape-rendering:geometricPrecision; text-rendering:geometricPrecision; image-rendering:optimizeQuality; fill-rule:evenodd; clip-rule:evenodd" xmlns:xlink="http://www.w3.org/1999/xlink">
<g><path style="opacity:0.878" fill="#ffd300" d="M 2.5,2.5 C 6.83333,2.5 11.1667,2.5 15.5,2.5C 15.5,15.1667 15.5,27.8333 15.5,40.5C 11.1667,40.5 6.83333,40.5 2.5,40.5C 2.5,27.8333 2.5,15.1667 2.5,2.5 Z"/></g>
<g><path style="opacity:0.943" fill="#ffd200" d="M 25.5,2.5 C 39.8488,2.16739 54.1821,2.50072 68.5,3.5C 66.3596,6.8073 64.0263,9.97396 61.5,13C 57.1794,13.499 52.8461,13.6657 48.5,13.5C 48.5,22.5 48.5,31.5 48.5,40.5C 44.1667,40.5 39.8333,40.5 35.5,40.5C 35.5,31.5 35.5,22.5 35.5,13.5C 29.4908,13.6662 23.4908,13.4995 17.5,13C 20.3826,9.62354 23.0493,6.12354 25.5,2.5 Z"/></g>
<g><path style="opacity:0.919" fill="#29ace2" d="M 82.5,2.5 C 94.8513,2.16764 107.185,2.50097 119.5,3.5C 117.36,6.8073 115.026,9.97396 112.5,13C 102.833,13.3333 93.1667,13.6667 83.5,14C 82.1667,15 82.1667,16 83.5,17C 94.2247,17.0967 104.891,17.7634 115.5,19C 121.785,24.9695 122.119,31.3029 116.5,38C 114.913,38.8624 113.246,39.5291 111.5,40C 97.5406,41.3656 83.5406,41.8656 69.5,41.5C 70.956,37.935 72.956,34.6017 75.5,31.5C 85.8173,30.6677 96.1506,30.1677 106.5,30C 108.997,27.7403 108.33,26.407 104.5,26C 95.5,25.6667 86.5,25.3333 77.5,25C 70.947,22.2701 68.7804,17.4368 71,10.5C 73.437,5.70754 77.2703,3.04087 82.5,2.5 Z"/></g>
<g><path style="opacity:0.92" fill="#29a9e1" d="M 121.5,2.5 C 126.844,2.33398 132.177,2.50065 137.5,3C 141.677,8.00806 146.01,12.8414 150.5,17.5C 154.845,13.153 158.845,8.4863 162.5,3.5C 167.833,2.16667 173.167,2.16667 178.5,3.5C 171.333,11.8333 164.167,20.1667 157,28.5C 156.501,32.4862 156.334,36.4862 156.5,40.5C 152.5,40.5 148.5,40.5 144.5,40.5C 144.666,36.4862 144.499,32.4862 144,28.5C 135.894,20.237 128.394,11.5703 121.5,2.5 Z"/></g>
<g><path style="opacity:0.938" fill="#28aae1" d="M 182.5,2.5 C 185.649,2.21138 188.649,2.71138 191.5,4C 198.667,10.5 205.833,17 213,23.5C 213.5,16.5079 213.666,9.50793 213.5,2.5C 217.167,2.5 220.833,2.5 224.5,2.5C 224.667,14.5046 224.5,26.5046 224,38.5C 221.441,41.3492 218.274,42.1825 214.5,41C 207,34.1667 199.5,27.3333 192,20.5C 191.5,27.1583 191.334,33.825 191.5,40.5C 187.5,40.5 183.5,40.5 179.5,40.5C 179.333,29.1618 179.5,17.8284 180,6.5C 180.662,5.01608 181.496,3.68275 182.5,2.5 Z"/></g>
<g><path style="opacity:0.924" fill="#28ace2" d="M 237.5,2.5 C 245.174,2.33365 252.841,2.50031 260.5,3C 278.969,7.93721 283.303,18.6039 273.5,35C 270.446,37.1939 267.112,38.8605 263.5,40C 252.873,41.4784 242.206,41.8117 231.5,41C 230.518,32.919 230.184,24.7524 230.5,16.5C 234.833,16.5 239.167,16.5 243.5,16.5C 243.5,21.1667 243.5,25.8333 243.5,30.5C 249.593,30.8608 255.593,30.3608 261.5,29C 266.087,26.2368 267.254,22.4035 265,17.5C 263.2,15.683 261.034,14.5163 258.5,14C 249.149,13.8321 239.816,13.3321 230.5,12.5C 232.859,9.14863 235.192,5.8153 237.5,2.5 Z"/></g>
<g><path style="opacity:0.918" fill="#28aae1" d="M 283.5,2.5 C 287.833,2.5 292.167,2.5 296.5,2.5C 296.5,15.1667 296.5,27.8333 296.5,40.5C 292.167,40.5 287.833,40.5 283.5,40.5C 283.5,27.8333 283.5,15.1667 283.5,2.5 Z"/></g>
<g><path style="opacity:0.922" fill="#29abe2" d="M 319.5,2.5 C 329.855,2.16805 340.188,2.50138 350.5,3.5C 348.36,6.8073 346.026,9.97396 343.5,13C 336.167,13.3333 328.833,13.6667 321.5,14C 316.833,14.6667 314.167,17.3333 313.5,22C 314.361,24.8682 316.028,27.2015 318.5,29C 329.126,30.0709 339.793,30.9042 350.5,31.5C 348.549,34.7861 346.215,37.7861 343.5,40.5C 334.509,41.7426 325.509,41.5759 316.5,40C 302.455,34.8709 298.288,25.3709 304,11.5C 308.29,6.7786 313.457,3.7786 319.5,2.5 Z"/></g>
<g><path style="opacity:0.945" fill="#29ade2" d="M 376.5,2.5 C 381.447,1.62758 385.613,2.96091 389,6.5C 396.333,17.1667 403.667,27.8333 411,38.5C 411.483,39.448 411.649,40.448 411.5,41.5C 397.163,41.6666 382.829,41.4999 368.5,41C 368.167,40.6667 367.833,40.3333 367.5,40C 369.833,37 372.167,34 374.5,31C 379.5,30.6667 384.5,30.3333 389.5,30C 386.623,25.7451 383.623,21.5784 380.5,17.5C 374.956,25.4217 369.289,33.2551 363.5,41C 358.845,41.4992 354.179,41.6658 349.5,41.5C 349.491,39.6916 349.991,38.0249 351,36.5C 359.266,24.958 367.766,13.6247 376.5,2.5 Z"/></g>
<g><path style="opacity:0.91" fill="#28aae1" d="M 406.5,2.5 C 421.182,2.16735 435.848,2.50069 450.5,3.5C 447.925,6.31905 445.592,9.31905 443.5,12.5C 438.88,13.4933 434.214,13.8266 429.5,13.5C 429.5,22.5 429.5,31.5 429.5,40.5C 425.167,40.5 420.833,40.5 416.5,40.5C 416.5,31.5 416.5,22.5 416.5,13.5C 410.794,13.8288 405.128,13.4954 399.5,12.5C 401.884,9.1306 404.217,5.79726 406.5,2.5 Z"/></g>
<g><path style="opacity:0.906" fill="#28ace2" d="M 452.5,2.5 C 467.167,2.5 481.833,2.5 496.5,2.5C 494.848,6.34372 492.515,9.84372 489.5,13C 481.507,13.4997 473.507,13.6664 465.5,13.5C 465.5,14.5 465.5,15.5 465.5,16.5C 475.19,16.1682 484.856,16.5016 494.5,17.5C 492.694,20.472 490.694,23.3053 488.5,26C 480.841,26.4997 473.174,26.6664 465.5,26.5C 465.5,27.8333 465.5,29.1667 465.5,30.5C 475.855,30.1681 486.188,30.5014 496.5,31.5C 494.36,34.8073 492.026,37.974 489.5,41C 477.5,41.6667 465.5,41.6667 453.5,41C 452.511,28.2464 452.178,15.4131 452.5,2.5 Z"/></g>
<g><path style="opacity:0.668" fill="#fcfcfc" d="M 117.5,56.5 C 120.518,56.3354 123.518,56.502 126.5,57C 130.213,58.6912 131.379,61.5245 130,65.5C 129.097,66.7014 127.931,67.5348 126.5,68C 122.848,68.4986 119.182,68.6653 115.5,68.5C 115.079,64.2576 115.746,60.2576 117.5,56.5 Z M 120.5,60.5 C 123.045,60.1505 125.045,60.9838 126.5,63C 124.75,64.3186 122.75,64.8186 120.5,64.5C 120.5,63.1667 120.5,61.8333 120.5,60.5 Z"/></g>
<g><path style="opacity:0.667" fill="#fcfcfc" d="M 236.5,58.5 C 241.603,55.8527 246.77,55.8527 252,58.5C 252.896,61.025 252.396,63.1917 250.5,65C 254.167,68.3633 253.167,69.3633 247.5,68C 246.022,65.9614 244.022,65.1281 241.5,65.5C 241.5,66.5 241.5,67.5 241.5,68.5C 239.234,68.8588 237.401,68.1922 236,66.5C 235.5,67 235,67.5 234.5,68C 230.514,68.4988 226.514,68.6655 222.5,68.5C 222.66,66.8008 222.494,65.1341 222,63.5C 221.5,64 221,64.5 220.5,65C 217.518,65.498 214.518,65.6646 211.5,65.5C 211.5,66.5 211.5,67.5 211.5,68.5C 209.833,68.5 208.167,68.5 206.5,68.5C 206.557,64.8669 205.557,64.7002 203.5,68C 199.833,68.6667 196.167,68.6667 192.5,68C 191.333,67.5 190.5,66.6667 190,65.5C 189.626,66.4162 189.126,67.2496 188.5,68C 184.848,68.4986 181.182,68.6653 177.5,68.5C 177.541,64.7566 176.874,64.5899 175.5,68C 171.514,68.4988 167.514,68.6655 163.5,68.5C 163.665,65.1501 163.498,61.8168 163,58.5C 160.5,61.6667 158,64.8333 155.5,68C 154.167,68.6667 152.833,68.6667 151.5,68C 148.963,65.0937 146.796,61.927 145,58.5C 144.876,60.4257 144.042,62.259 142.5,64C 144.592,64.9525 144.925,66.2859 143.5,68C 139.514,68.4988 135.514,68.6655 131.5,68.5C 131.5,64.5 131.5,60.5 131.5,56.5C 137.509,56.3338 143.509,56.5005 149.5,57C 150.64,58.9734 151.973,60.8067 153.5,62.5C 155.063,61.0552 156.396,59.3885 157.5,57.5C 165.472,56.5023 173.472,56.169 181.5,56.5C 181.5,59.1667 181.5,61.8333 181.5,64.5C 184.167,64.5 186.833,64.5 189.5,64.5C 188.959,61.3484 189.959,58.8484 192.5,57C 197.674,55.7177 202.34,56.551 206.5,59.5C 210.312,56.669 214.645,55.8356 219.5,57C 220.667,57.5 221.5,58.3333 222,59.5C 222.483,58.552 222.649,57.552 222.5,56.5C 227.619,55.8969 232.285,56.5636 236.5,58.5 Z M 176.5,57.5 C 177.468,59.6074 177.802,61.9407 177.5,64.5C 173.901,64.7381 173.567,63.7381 176.5,61.5C 175.637,60.2736 175.637,58.9403 176.5,57.5 Z M 236.5,58.5 C 239.701,60.2603 243.367,61.0936 247.5,61C 243.848,61.4986 240.182,61.6653 236.5,61.5C 236.719,62.675 236.386,63.675 235.5,64.5C 235.167,64.1667 234.833,63.8333 234.5,63.5C 235.711,62.2798 235.711,61.1131 234.5,60C 235.044,59.2828 235.711,58.7828 236.5,58.5 Z M 194.5,60.5 C 196.833,60.5 199.167,60.5 201.5,60.5C 201.5,61.8333 201.5,63.1667 201.5,64.5C 199.143,64.6633 196.81,64.4966 194.5,64C 193.316,62.8545 193.316,61.6879 194.5,60.5 Z"/></g>
<g><path style="opacity:0.693" fill="#fcfcfc" d="M 261.5,56.5 C 265.182,56.3347 268.848,56.5014 272.5,57C 274.619,59.2185 274.952,61.7185 273.5,64.5C 270.242,65.4173 266.909,65.7507 263.5,65.5C 263.5,66.5 263.5,67.5 263.5,68.5C 262.167,68.5 260.833,68.5 259.5,68.5C 259.5,66.1667 259.5,63.8333 259.5,61.5C 274.107,61.4918 274.107,60.8252 259.5,59.5C 260.193,58.4822 260.859,57.4822 261.5,56.5 Z"/></g>
<g><path style="opacity:0.706" fill="#fbfbfb" d="M 301.5,60.5 C 302.028,59.2794 302.695,58.1127 303.5,57C 308,56.8333 312.5,56.6667 317,56.5C 321.919,56.5324 326.586,57.1991 331,58.5C 331.5,58 332,57.5 332.5,57C 336.167,56.3333 339.833,56.3333 343.5,57C 347.487,60.713 347.487,64.3797 343.5,68C 339.833,68.6667 336.167,68.6667 332.5,68C 330.513,66.6811 329.346,64.8477 329,62.5C 326.894,64.291 324.394,64.9577 321.5,64.5C 321.5,65.8333 321.5,67.1667 321.5,68.5C 320.167,68.5 318.833,68.5 317.5,68.5C 317.665,64.8183 317.499,61.1516 317,57.5C 316.072,60.0352 314.238,61.0352 311.5,60.5C 311.5,63.1667 311.5,65.8333 311.5,68.5C 299.5,68.5 287.5,68.5 275.5,68.5C 275.5,64.5 275.5,60.5 275.5,56.5C 276.833,56.5 278.167,56.5 279.5,56.5C 279.5,59.1667 279.5,61.8333 279.5,64.5C 285.889,66.1373 290.389,64.1373 293,58.5C 296.626,55.6144 299.459,56.2811 301.5,60.5 Z M 301.5,60.5 C 303.167,60.5 304.833,60.5 306.5,60.5C 306.685,69.1512 305.019,69.1512 301.5,60.5 Z M 334.5,60.5 C 336.857,60.3367 339.19,60.5034 341.5,61C 342.833,62 342.833,63 341.5,64C 339.19,64.4966 336.857,64.6633 334.5,64.5C 334.5,63.1667 334.5,61.8333 334.5,60.5 Z M 295.5,62.5 C 296.376,62.3691 297.043,62.7025 297.5,63.5C 295.192,64.8734 294.525,64.5401 295.5,62.5 Z"/></g>
<g><path style="opacity:0.699" fill="#fcfcfc" d="M 349.5,56.5 C 353.182,56.3347 356.848,56.5014 360.5,57C 363.95,59.158 364.283,61.658 361.5,64.5C 361.808,65.3081 362.308,65.9747 363,66.5C 364.092,63.2905 365.259,60.1239 366.5,57C 367.944,56.2195 369.277,56.3861 370.5,57.5C 371.667,59.1667 372.833,60.8333 374,62.5C 374.833,60.8333 375.667,59.1667 376.5,57.5C 377.723,56.3861 379.056,56.2195 380.5,57C 381.927,60.4442 383.26,63.9442 384.5,67.5C 382.955,68.4519 381.288,68.7852 379.5,68.5C 378.993,62.6862 377.827,62.3529 376,67.5C 372.085,69.2891 369.752,67.9558 369,63.5C 368.587,67.308 366.421,68.9747 362.5,68.5C 358.662,67.9654 354.995,66.9654 351.5,65.5C 351.5,66.5 351.5,67.5 351.5,68.5C 350.167,68.5 348.833,68.5 347.5,68.5C 347.5,66.1667 347.5,63.8333 347.5,61.5C 362.107,61.4918 362.107,60.8252 347.5,59.5C 348.193,58.4822 348.859,57.4822 349.5,56.5 Z"/></g>
</svg>
