<svg version="1.1" id="Layer_1" xmlns="http://www.w3.org/2000/svg" xmlns:xlink="http://www.w3.org/1999/xlink" x="0px" y="0px"
	 width="100%" viewBox="0 0 500 500" xml:space="preserve">
<path opacity="0.000000" stroke="none" 
	d="
M218.000000,501.000000 
	C145.333344,501.000000 73.166702,501.000000 1.000039,501.000000 
	C1.000026,334.333405 1.000026,167.666779 1.000013,1.000128 
	C167.666565,1.000085 334.333130,1.000085 500.999756,1.000043 
	C500.999847,167.666534 500.999847,334.333069 500.999939,500.999817 
	C406.833344,501.000000 312.666656,501.000000 218.000000,501.000000 
M288.712799,311.000000 
	C330.136841,310.666718 371.562958,310.477112 412.983032,309.872681 
	C420.784149,309.758881 428.803131,308.866547 436.295349,306.793243 
	C449.158081,303.233765 459.668243,296.022003 462.907013,282.047852 
	C464.410461,275.561005 464.843140,268.715515 464.891571,262.026306 
	C464.977203,250.195480 459.327240,241.590195 448.878693,235.926254 
	C439.673523,230.936325 429.718109,229.167938 419.516632,229.077454 
	C393.360046,228.845474 367.200012,229.014008 341.041443,228.968948 
	C339.269867,228.965897 337.477570,228.621582 335.732025,228.257812 
	C330.823700,227.234863 328.599854,224.341354 328.931946,219.158310 
	C329.243805,214.290741 332.373444,212.759933 336.325104,212.019302 
	C339.048584,211.508865 341.833069,211.050827 344.591614,211.043121 
	C370.583435,210.970566 396.579803,210.735596 422.565125,211.153076 
	C430.902618,211.287033 437.439636,210.508575 442.408630,202.427902 
	C448.007080,193.323624 455.201782,185.200958 462.197388,176.000000 
	C459.658661,176.000000 458.045197,176.000000 456.431702,176.000000 
	C417.277039,176.000000 378.121948,175.911575 338.968109,176.091003 
	C332.771332,176.119385 326.434753,176.742172 320.417542,178.166290 
	C309.038300,180.859497 299.064331,185.731277 292.583984,196.551071 
	C287.638184,204.808762 287.904846,213.480942 288.038849,222.323868 
	C288.157410,230.146378 290.898438,237.079269 296.311371,242.775803 
	C304.976562,251.894989 316.293152,255.262390 328.266235,255.850449 
	C341.563385,256.503540 354.918945,255.871231 368.246246,256.033569 
	C383.843842,256.223572 399.440735,256.587646 415.032593,257.055176 
	C419.067200,257.176147 423.139862,258.169769 423.939972,263.063171 
	C425.029480,269.726440 423.088776,272.763245 416.951050,274.471100 
	C415.239929,274.947205 413.366516,274.977936 411.567352,274.979492 
	C378.910706,275.007629 346.253906,274.960968 313.597748,275.092438 
	C311.535126,275.100739 308.721313,275.818878 307.542877,277.259033 
	C300.700989,285.620392 294.222748,294.280426 287.671997,302.877960 
	C285.886169,305.221741 284.274475,307.698212 281.962219,311.000000 
	C284.832214,311.000000 286.305786,311.000000 288.712799,311.000000 
M203.500000,176.000000 
	C179.843216,176.000000 156.184814,176.146896 132.530823,175.889969 
	C127.063675,175.830597 123.115372,176.866867 120.283043,182.006699 
	C118.257263,185.682907 115.040672,188.691559 112.448685,192.069626 
	C107.842926,198.072205 103.307922,204.129059 98.056297,211.071411 
	C119.777489,211.071411 140.176834,211.071411 161.083466,211.071411 
	C161.083466,244.226624 161.083466,276.942078 161.083466,309.651978 
	C175.652054,309.651978 189.703674,309.651978 204.263916,309.651978 
	C204.263916,276.591095 204.263916,243.875641 204.263916,210.999985 
	C219.099060,210.999985 233.421768,211.094009 247.740356,210.893616 
	C249.773941,210.865158 252.374603,209.943985 253.694656,208.503174 
	C256.986694,204.909943 259.666412,200.759628 262.638885,196.868820 
	C267.753052,190.174728 272.903015,183.507980 278.675934,176.000000 
	C253.306442,176.000000 228.903214,176.000000 203.500000,176.000000 
M44.000000,245.500000 
	C44.000000,266.916168 44.000000,288.332336 44.000000,309.605499 
	C58.412312,309.605499 72.132477,309.605499 85.744003,309.605499 
	C85.744003,264.951416 85.744003,220.692230 85.744003,176.306061 
	C71.768211,176.306061 58.049946,176.306061 44.000000,176.306061 
	C44.000000,199.240372 44.000000,221.870193 44.000000,245.500000 
z"/>
<path fill="#29ABE2" opacity="1.000000" stroke="none" 
	d="
M288.246094,311.000000 
	C286.305786,311.000000 284.832214,311.000000 281.962219,311.000000 
	C284.274475,307.698212 285.886169,305.221741 287.671997,302.877960 
	C294.222748,294.280426 300.700989,285.620392 307.542877,277.259033 
	C308.721313,275.818878 311.535126,275.100739 313.597748,275.092438 
	C346.253906,274.960968 378.910706,275.007629 411.567352,274.979492 
	C413.366516,274.977936 415.239929,274.947205 416.951050,274.471100 
	C423.088776,272.763245 425.029480,269.726440 423.939972,263.063171 
	C423.139862,258.169769 419.067200,257.176147 415.032593,257.055176 
	C399.440735,256.587646 383.843842,256.223572 368.246246,256.033569 
	C354.918945,255.871231 341.563385,256.503540 328.266235,255.850449 
	C316.293152,255.262390 304.976562,251.894989 296.311371,242.775803 
	C290.898438,237.079269 288.157410,230.146378 288.038849,222.323868 
	C287.904846,213.480942 287.638184,204.808762 292.583984,196.551071 
	C299.064331,185.731277 309.038300,180.859497 320.417542,178.166290 
	C326.434753,176.742172 332.771332,176.119385 338.968109,176.091003 
	C378.121948,175.911575 417.277039,176.000000 456.431702,176.000000 
	C458.045197,176.000000 459.658661,176.000000 462.197388,176.000000 
	C455.201782,185.200958 448.007080,193.323624 442.408630,202.427902 
	C437.439636,210.508575 430.902618,211.287033 422.565125,211.153076 
	C396.579803,210.735596 370.583435,210.970566 344.591614,211.043121 
	C341.833069,211.050827 339.048584,211.508865 336.325104,212.019302 
	C332.373444,212.759933 329.243805,214.290741 328.931946,219.158310 
	C328.599854,224.341354 330.823700,227.234863 335.732025,228.257812 
	C337.477570,228.621582 339.269867,228.965897 341.041443,228.968948 
	C367.200012,229.014008 393.360046,228.845474 419.516632,229.077454 
	C429.718109,229.167938 439.673523,230.936325 448.878693,235.926254 
	C459.327240,241.590195 464.977203,250.195480 464.891571,262.026306 
	C464.843140,268.715515 464.410461,275.561005 462.907013,282.047852 
	C459.668243,296.022003 449.158081,303.233765 436.295349,306.793243 
	C428.803131,308.866547 420.784149,309.758881 412.983032,309.872681 
	C371.562958,310.477112 330.136841,310.666718 288.246094,311.000000 
z"/>
<path fill="#FFD400" opacity="1.000000" stroke="none" 
	d="
M204.000000,176.000000 
	C228.903214,176.000000 253.306442,176.000000 278.675934,176.000000 
	C272.903015,183.507980 267.753052,190.174728 262.638885,196.868820 
	C259.666412,200.759628 256.986694,204.909943 253.694656,208.503174 
	C252.374603,209.943985 249.773941,210.865158 247.740356,210.893616 
	C233.421768,211.094009 219.099060,210.999985 204.263916,210.999985 
	C204.263916,243.875641 204.263916,276.591095 204.263916,309.651978 
	C189.703674,309.651978 175.652054,309.651978 161.083466,309.651978 
	C161.083466,276.942078 161.083466,244.226624 161.083466,211.071411 
	C140.176834,211.071411 119.777489,211.071411 98.056297,211.071411 
	C103.307922,204.129059 107.842926,198.072205 112.448685,192.069626 
	C115.040672,188.691559 118.257263,185.682907 120.283043,182.006699 
	C123.115372,176.866867 127.063675,175.830597 132.530823,175.889969 
	C156.184814,176.146896 179.843216,176.000000 204.000000,176.000000 
z"/>
<path fill="#FFD400" opacity="1.000000" stroke="none" 
	d="
M44.000000,245.000000 
	C44.000000,221.870193 44.000000,199.240372 44.000000,176.306061 
	C58.049946,176.306061 71.768211,176.306061 85.744003,176.306061 
	C85.744003,220.692230 85.744003,264.951416 85.744003,309.605499 
	C72.132477,309.605499 58.412312,309.605499 44.000000,309.605499 
	C44.000000,288.332336 44.000000,266.916168 44.000000,245.000000 
z"/>
</svg>